<?xml version="1.0" encoding="UTF-8"?>
<svg version="1.1" xmlns="http://www.w3.org/2000/svg" width="489" height="401">
<path d="M0 0 C161.37 0 322.74 0 489 0 C489 132.33 489 264.66 489 401 C327.63 401 166.26 401 0 401 C0 268.67 0 136.34 0 0 Z " fill="#000000" transform="translate(0,0)"/>
<path d="M0 0 C14.03960186 -0.41685279 26.42648793 3.15510882 37.2265625 12.27734375 C46.20220804 20.80138448 51.47955145 30.49797121 52.28125 42.8984375 C52.53487036 57.11526764 49.14702934 69.71458157 39.0703125 80.34375 C27.86665002 90.31931871 14.0739644 94.54647109 -0.74609375 94.36328125 C-13.12916045 93.55078356 -25.43687013 88.33368861 -33.9609375 79.15234375 C-39.30430722 72.71987957 -42.58543892 66.14730132 -44.9609375 58.15234375 C-45.15558594 57.52585938 -45.35023438 56.899375 -45.55078125 56.25390625 C-48.15870692 42.89139186 -44.63590709 31.56438854 -37.9609375 20.15234375 C-30.85491684 9.9863142 -19.17563705 2.87478075 -7.0859375 0.33984375 C-4.72550646 0.18087595 -2.36311723 0.12158519 0 0 Z " fill="#86E7DF" transform="translate(395.9609375,166.84765625)"/>
<path d="M0 0 C8.25 0 16.5 0 25 0 C25 11.22 25 22.44 25 34 C35.89 34 46.78 34 58 34 C58 22.78 58 11.56 58 0 C65.92 0 73.84 0 82 0 C82 29.7 82 59.4 82 90 C74.08 90 66.16 90 58 90 C58 78.45 58 66.9 58 55 C47.11 55 36.22 55 25 55 C25 66.55 25 78.1 25 90 C16.75 90 8.5 90 0 90 C0 60.3 0 30.6 0 0 Z " fill="#46CDC5" transform="translate(257,169)"/>
<path d="M0 0 C7.92 0 15.84 0 24 0 C24 22.77 24 45.54 24 69 C38.19 69 52.38 69 67 69 C67 75.93 67 82.86 67 90 C44.89 90 22.78 90 0 90 C0 60.3 0 30.6 0 0 Z " fill="#004450" transform="translate(45,169)"/>
<path d="M0 0 C1.25619141 0.03609375 2.51238281 0.0721875 3.80664062 0.109375 C6.89508778 0.20332016 9.97719438 0.334551 13.0625 0.5 C11.31157969 3.52422884 9.54446019 6.28887874 7.2421875 8.91796875 C6.44578857 9.83243774 6.44578857 9.83243774 5.63330078 10.76538086 C4.79387939 11.71682983 4.79387939 11.71682983 3.9375 12.6875 C3.06907471 13.68052124 3.06907471 13.68052124 2.18310547 14.69360352 C-1.82798687 19.27016313 -5.88180674 23.80744168 -9.96875 28.31640625 C-11.77284784 30.31737985 -13.54757017 32.3395031 -15.3125 34.375 C-17.7875354 37.22243656 -20.32227943 40.0067489 -22.88696289 42.77368164 C-26.85850476 47.06082472 -30.71288633 51.37813526 -34.375 55.9375 C-38.28275768 60.79408373 -42.42787994 65.36840014 -46.68481445 69.91650391 C-49.39824297 72.81768708 -52.03102713 75.74873699 -54.5625 78.8125 C-55.738125 80.1428125 -55.738125 80.1428125 -56.9375 81.5 C-57.5975 81.5 -58.2575 81.5 -58.9375 81.5 C-59.2675 82.49 -59.5975 83.48 -59.9375 84.5 C-68.34666264 89.19379361 -76.47056248 90.19723762 -85.9375 89.5 C-83.07443727 84.84752307 -79.71777103 80.94312557 -76.05859375 76.89453125 C-73.33941453 73.82481327 -70.80076522 70.63405602 -68.2578125 67.41796875 C-65.41036578 63.83708879 -62.51718147 60.29476546 -59.625 56.75 C-55.46476222 51.64640717 -51.35766903 46.50769452 -47.3125 41.3125 C-43.3344066 36.20593587 -39.21365615 31.24808904 -35.00048828 26.33447266 C-30.95165898 21.58402024 -27.16735669 16.65979176 -23.421875 11.66796875 C-23.02556885 11.17280762 -22.6292627 10.67764648 -22.22094727 10.16748047 C-20.86682097 8.46006123 -20.86682097 8.46006123 -19.57397461 6.35205078 C-14.32630513 -1.06308087 -8.54322872 -0.46591284 0 0 Z " fill="#1B9B97" transform="translate(233.9375,168.5)"/>
<path d="M0 0 C5.54937228 3.99112463 9.21308845 8.96562266 11.15625 15.55078125 C12.23977838 24.99486812 10.3933703 32.34826648 5.40625 40.36328125 C-1.23701333 46.82200949 -7.75120105 49.00879258 -16.89453125 48.88671875 C-23.66064723 48.11600885 -29.03951197 45.03522998 -33.28125 39.73828125 C-38.39069247 31.96555999 -39.92627478 24.87525607 -38.84375 15.55078125 C-36.73907154 7.45779145 -31.71528876 1.95113528 -24.71875 -2.38671875 C-16.47128798 -5.33356473 -7.48311254 -4.31250804 0 0 Z " fill="#020303" transform="translate(412.84375,191.44921875)"/>
<path d="M0 0 C7.92 0 15.84 0 24 0 C24.0677505 8.16237205 24.1228011 16.32452586 24.15543652 24.48710346 C24.1710991 28.2772344 24.19234778 32.06716316 24.22631836 35.85717773 C24.2588913 39.51410601 24.27684855 43.1708397 24.28463173 46.82790184 C24.29017901 48.22378796 24.3010115 49.61966331 24.31719017 51.01546669 C24.33893429 52.9689459 24.34022515 54.92262051 24.34057617 56.8762207 C24.34723801 57.9887471 24.35389984 59.1012735 24.36076355 60.24751282 C24 63 24 63 22.5839386 64.81193542 C20.9530589 66.0352091 19.33738757 67.12094333 17.5625 68.125 C16.69818359 68.62386719 16.69818359 68.62386719 15.81640625 69.1328125 C10.40590308 71.71589143 6.32083132 71 0 71 C0 47.57 0 24.14 0 0 Z " fill="#0D666C" transform="translate(122,188)"/>
<path d="M0 0 C7.92 0 15.84 0 24 0 C25.86546904 32.61744353 25.86546904 32.61744353 20.36914062 39.56494141 C18.03547254 41.90394794 15.59344068 43.94820461 13 46 C11.15217944 48.16345629 11.15217944 48.16345629 9.6875 50.3125 C9.2440625 50.91707031 8.800625 51.52164063 8.34375 52.14453125 C7.9003125 52.75683594 7.456875 53.36914062 7 54 C5.89955398 55.50273171 4.79540569 57.00275953 3.6875 58.5 C3.19636719 59.1703125 2.70523438 59.840625 2.19921875 60.53125 C1.60560547 61.25828125 1.60560547 61.25828125 1 62 C0.67 62 0.34 62 0 62 C0 41.54 0 21.08 0 0 Z " fill="#1CA9A5" transform="translate(164,169)"/>
<path d="M0 0 C3.2574919 1.38160774 4.90773314 2.81973126 6.9609375 5.68359375 C7.50838623 6.43761475 8.05583496 7.19163574 8.61987305 7.96850586 C9.19906494 8.78327393 9.77825684 9.59804199 10.375 10.4375 C11.61825311 12.15642106 12.86175013 13.87516573 14.10546875 15.59375 C14.74403809 16.48191406 15.38260742 17.37007812 16.04052734 18.28515625 C19.22265845 22.69398977 22.45669655 27.0642824 25.6875 31.4375 C26.83733821 32.99862528 27.98708442 34.55981833 29.13671875 36.12109375 C30.62633113 38.14386727 32.11799577 40.14881159 33.67895508 42.11743164 C35 44 35 44 35 46 C11.41799037 48.8494218 11.41799037 48.8494218 4.51074219 44.39453125 C0.44179006 40.26061762 -2.25775109 35.37965674 -4.83935547 30.22265625 C-6.39659232 27.24051819 -8.30526733 24.77298168 -10.375 22.125 C-12.0234375 19.9453125 -12.0234375 19.9453125 -13 18 C-12.54535152 14.77657942 -11.40419924 12.96477388 -9.27734375 10.546875 C-8.73916016 9.928125 -8.20097656 9.309375 -7.64648438 8.671875 C-7.08251953 8.03765625 -6.51855469 7.4034375 -5.9375 6.75 C-5.08575195 5.77546875 -5.08575195 5.77546875 -4.21679688 4.78125 C-2.8174556 3.18200283 -1.40954759 1.59025881 0 0 Z " fill="#22B4AB" transform="translate(215,213)"/>
<path d="M0 0 C0.66 0 1.32 0 2 0 C2 8.25 2 16.5 2 25 C1.34 25 0.68 25 0 25 C0 27.64 0 30.28 0 33 C2.31 32.34 4.62 31.68 7 31 C6.65555119 28.52733235 6.65555119 28.52733235 6 26 C5.34 25.67 4.68 25.34 4 25 C4 16.75 4 8.5 4 0 C4.66 0 5.32 0 6 0 C6.43699219 1.23363281 6.43699219 1.23363281 6.8828125 2.4921875 C10.33877206 11.9037 14.39107161 20.3743134 21 28 C19.22666078 31.64565551 17.19411519 35.1042457 15.12109375 38.5859375 C13.64592219 41.48190167 13.64592219 41.48190167 13 47 C6.73 47 0.46 47 -6 47 C-6.5775 45.30875 -7.155 43.6175 -7.75 41.875 C-8.97714411 38.43193381 -10.13637006 35.51846727 -12.375 32.625 C-13.179375 31.325625 -13.179375 31.325625 -14 30 C-12.80887631 25.85233714 -10.47730344 22.51921487 -8.125 18.9375 C-4.28635009 12.9374403 -1.88671567 6.88899472 0 0 Z " fill="#1FA5A3" transform="translate(131,128)"/>
<path d="M0 0 C6.27 0 12.54 0 19 0 C19 1.98 19 3.96 19 6 C12.73 6 6.46 6 0 6 C0 4.02 0 2.04 0 0 Z " fill="#116F71" transform="translate(125,178)"/>
<path d="M0 0 C0.66 0 1.32 0 2 0 C2 4.29 2 8.58 2 13 C-2.95 13 -7.9 13 -13 13 C-9.94078042 9.94078042 -6.90847866 7.19977392 -3.5859375 4.46484375 C-1.75815601 2.89165821 -1.75815601 2.89165821 0 0 Z " fill="#119B9B" transform="translate(186,246)"/>
<path d="M0 0 C0.33 0 0.66 0 1 0 C1.0093457 0.7113208 1.01869141 1.4226416 1.02832031 2.15551758 C1.08196888 5.3752206 1.16562635 8.59346183 1.25 11.8125 C1.26417969 12.93205078 1.27835938 14.05160156 1.29296875 15.20507812 C1.32519531 16.27822266 1.35742188 17.35136719 1.390625 18.45703125 C1.4220459 19.9416687 1.4220459 19.9416687 1.45410156 21.45629883 C1.77483639 24.15702543 1.77483639 24.15702543 4.03808594 25.84643555 C4.68551758 26.22711182 5.33294922 26.60778809 6 27 C5.125 31.875 5.125 31.875 4 33 C2.00041636 33.04080783 -0.00045254 33.04254356 -2 33 C-3.125 27.25 -3.125 27.25 -2 25 C-1.34 25 -0.68 25 0 25 C0 16.75 0 8.5 0 0 Z " fill="#041313" transform="translate(133,128)"/>
<path d="M0 0 C0.66 0 1.32 0 2 0 C1.1875 2.4375 1.1875 2.4375 0 5 C-0.99 5.33 -1.98 5.66 -3 6 C-4.20882096 8.00016466 -4.20882096 8.00016466 -5 10 C-5.66 9.67 -6.32 9.34 -7 9 C-5.88266271 7.49428343 -4.75589965 5.99555708 -3.625 4.5 C-2.99851563 3.6646875 -2.37203125 2.829375 -1.7265625 1.96875 C-1.15679687 1.3190625 -0.58703125 0.669375 0 0 Z " fill="#10908F" transform="translate(191,204)"/>
<path d="M0 0 C0.66 0 1.32 0 2 0 C2.25 2.8125 2.25 2.8125 2 6 C0 7.875 0 7.875 -2 9 C-1.34 6.03 -0.68 3.06 0 0 Z " fill="#21B0B1" transform="translate(130,132)"/>
</svg>
